<svg id="visual" viewBox="0 0 900 600" width="900" height="600" xmlns="http://www.w3.org/2000/svg" xmlns:xlink="http://www.w3.org/1999/xlink" version="1.1"><rect x="0" y="0" width="900" height="600" fill="#002233"></rect><path d="M0 433L21.5 430.8C43 428.7 86 424.3 128.8 432.5C171.7 440.7 214.3 461.3 257.2 455.8C300 450.3 343 418.7 385.8 418C428.7 417.3 471.3 447.7 514.2 446.2C557 444.7 600 411.3 642.8 409.3C685.7 407.3 728.3 436.7 771.2 440.7C814 444.7 857 423.3 878.5 412.7L900 402L900 601L878.5 601C857 601 814 601 771.2 601C728.3 601 685.7 601 642.8 601C600 601 557 601 514.2 601C471.3 601 428.7 601 385.8 601C343 601 300 601 257.2 601C214.3 601 171.7 601 128.8 601C86 601 43 601 21.5 601L0 601Z" fill="#0066FF" stroke-linecap="round" stroke-linejoin="miter"></path></svg>